<?xml version="1.0" encoding="UTF-8"?>
<!DOCTYPE svg PUBLIC "-//W3C//DTD SVG 1.1//EN" "http://www.w3.org/Graphics/SVG/1.1/DTD/svg11.dtd">
<svg xmlns="http://www.w3.org/2000/svg" version="1.1" width="200px" height="200px" style="shape-rendering:geometricPrecision; text-rendering:geometricPrecision; image-rendering:optimizeQuality; fill-rule:evenodd; clip-rule:evenodd" xmlns:xlink="http://www.w3.org/1999/xlink">
<g><path style="opacity:1" fill="#482eb8" d="M 117.5,15.5 C 122.529,18.2054 126.196,22.2054 128.5,27.5C 128.023,28.4776 127.357,29.3109 126.5,30C 122.174,29.0243 117.841,27.691 113.5,26C 106.677,25.0656 100.01,25.5656 93.5,27.5C 93.8807,26.0689 94.8807,25.2355 96.5,25C 102.859,24.8306 109.193,24.3306 115.5,23.5C 116.248,21.6675 117.248,20.0009 118.5,18.5C 117.873,17.5832 117.539,16.5832 117.5,15.5 Z"/></g>
<g><path style="opacity:1" fill="#3d2e8d" d="M 93.5,27.5 C 91.8061,29.8606 89.8061,31.8606 87.5,33.5C 87.5,32.1667 87.5,30.8333 87.5,29.5C 89.5,28.8333 91.5,28.1667 93.5,27.5 Z"/></g>
<g><path style="opacity:1" fill="#42309e" d="M 149.5,37.5 C 138.901,35.3188 128.235,34.9855 117.5,36.5C 121.896,34.9669 126.563,34.3002 131.5,34.5C 137.87,34.1032 143.87,35.1032 149.5,37.5 Z"/></g>
<g><path style="opacity:1" fill="#463693" d="M 41.5,38.5 C 50.121,37.4514 50.7877,39.7847 43.5,45.5C 43.1412,43.2341 43.8078,41.4007 45.5,40C 44.4366,38.8118 43.1033,38.3118 41.5,38.5 Z"/></g>
<g><path style="opacity:1" fill="#4633b1" d="M 149.5,37.5 C 153.856,38.5107 157.856,40.3441 161.5,43C 162.71,44.0391 163.71,45.2058 164.5,46.5C 161.996,44.8557 159.329,43.3557 156.5,42C 154.866,41.5065 153.199,41.3398 151.5,41.5C 151.473,39.8007 150.806,38.4674 149.5,37.5 Z"/></g>
<g><path style="opacity:1" fill="#4b33ba" d="M 41.5,38.5 C 43.1033,38.3118 44.4366,38.8118 45.5,40C 43.8078,41.4007 43.1412,43.2341 43.5,45.5C 39.1688,50.5193 36.1688,56.186 34.5,62.5C 34.6074,58.9019 35.2741,55.4019 36.5,52C 35.1054,49.4309 35.7721,47.4309 38.5,46C 35.0569,45.7787 34.7236,44.7787 37.5,43C 35.1122,42.1349 33.6122,42.9683 33,45.5C 32.3292,44.7476 31.4959,44.4142 30.5,44.5C 33.678,41.7417 37.3447,39.7417 41.5,38.5 Z"/></g>
<g><path style="opacity:1" fill="#492bd9" d="M 117.5,15.5 C 117.539,16.5832 117.873,17.5832 118.5,18.5C 117.248,20.0009 116.248,21.6675 115.5,23.5C 109.193,24.3306 102.859,24.8306 96.5,25C 94.8807,25.2355 93.8807,26.0689 93.5,27.5C 91.5,28.1667 89.5,28.8333 87.5,29.5C 87.5,30.8333 87.5,32.1667 87.5,33.5C 87.1667,34.5 86.5,35.1667 85.5,35.5C 83.8008,35.3398 82.1341,35.5065 80.5,36C 81.3081,36.3076 81.9747,36.8076 82.5,37.5C 78.3441,43.7838 74.8441,50.4504 72,57.5C 69.9178,59.9465 67.7511,62.2799 65.5,64.5C 64.5633,67.68 63.5633,70.8467 62.5,74C 62.5699,74.7648 62.9033,75.2648 63.5,75.5C 66.3396,78.1428 69.673,78.9761 73.5,78C 75.7721,75.973 77.9387,73.8063 80,71.5C 87.2636,54.0649 99.7636,42.3983 117.5,36.5C 128.235,34.9855 138.901,35.3188 149.5,37.5C 150.806,38.4674 151.473,39.8007 151.5,41.5C 153.199,41.3398 154.866,41.5065 156.5,42C 159.329,43.3557 161.996,44.8557 164.5,46.5C 166.167,47.5 167.5,48.8333 168.5,50.5C 169.932,53.457 170.932,56.6237 171.5,60C 171.265,60.8732 170.931,61.7065 170.5,62.5C 171.557,62.9059 172.891,62.9059 174.5,62.5C 174.908,65.5304 175.574,68.5304 176.5,71.5C 176.459,74.3314 175.792,76.998 174.5,79.5C 173.004,76.7523 170.337,74.7523 166.5,73.5C 165.89,72.609 165.557,71.609 165.5,70.5C 164.067,68.4418 163.4,66.1085 163.5,63.5C 162.448,63.6495 161.448,63.4828 160.5,63C 159.743,61.4878 158.743,60.1545 157.5,59C 154.05,58.2367 151.05,56.7367 148.5,54.5C 145.572,53.5159 142.572,53.1826 139.5,53.5C 136.854,52.8356 134.021,52.5022 131,52.5C 127.748,52.5191 124.915,53.1858 122.5,54.5C 120.703,55.7298 118.703,56.3964 116.5,56.5C 114.071,56.8844 111.737,57.551 109.5,58.5C 109.5,59.5 109.5,60.5 109.5,61.5C 108.5,61.5 107.5,61.5 106.5,61.5C 106.5,62.8333 106.5,64.1667 106.5,65.5C 105.5,65.5 104.5,65.5 103.5,65.5C 103.5,67.1667 103.5,68.8333 103.5,70.5C 102.325,70.281 101.325,70.6143 100.5,71.5C 99.6518,73.4086 99.3184,75.4086 99.5,77.5C 97.4039,83.3688 94.0705,88.3688 89.5,92.5C 89.3398,90.8008 89.5065,89.1341 90,87.5C 90.7412,86.3595 91.5745,86.3595 92.5,87.5C 93.9955,84.3553 93.6621,81.5219 91.5,79C 93.4812,78.3946 93.8146,77.3946 92.5,76C 94.1667,75.6667 95.8333,75.3333 97.5,75C 97.0426,74.586 96.7093,74.086 96.5,73.5C 98.0314,72.3869 99.0314,70.8869 99.5,69C 99.7725,66.8491 100.439,64.8491 101.5,63C 101.167,62.6667 100.833,62.3333 100.5,62C 102.333,59.5 104.167,57 106,54.5C 106.333,54.8333 106.667,55.1667 107,55.5C 110.441,52.0894 114.608,50.0894 119.5,49.5C 119.5,48.1667 119.5,46.8333 119.5,45.5C 124.365,45.5494 129.032,46.5494 133.5,48.5C 134.5,47.8333 135.5,47.1667 136.5,46.5C 140.069,47.9674 143.736,49.1341 147.5,50C 146.289,50.8928 146.289,51.7261 147.5,52.5C 148.5,51.8333 149.5,51.1667 150.5,50.5C 153.182,51.4684 155.516,53.4684 157.5,56.5C 158.711,55.7261 158.711,54.8928 157.5,54C 158.167,53.3333 158.833,52.6667 159.5,52C 158.167,50.3333 156.833,48.6667 155.5,47C 158.228,46.3611 158.728,45.1944 157,43.5C 152.683,44.9507 149.016,43.9507 146,40.5C 144.768,43.7548 142.768,44.0881 140,41.5C 130.274,41.5219 120.607,41.5219 111,41.5C 109.706,42.8544 109.54,44.1877 110.5,45.5C 108.653,46.8304 107.153,46.497 106,44.5C 105.667,45.5 105.333,46.5 105,47.5C 99.6906,51.7458 95.1906,56.7458 91.5,62.5C 90.7492,61.624 90.2492,60.624 90,59.5C 89.8856,65.8609 87.7189,70.6942 83.5,74C 84.3567,74.6891 85.0233,75.5224 85.5,76.5C 81.4194,78.9577 77.2528,81.291 73,83.5C 72.6667,83.1667 72.3333,82.8333 72,82.5C 69.6667,83.1667 67.3333,83.8333 65,84.5C 63.8873,82.408 63.7207,80.0747 64.5,77.5C 63.1667,77.5 61.8333,77.5 60.5,77.5C 60.3573,75.7376 60.6906,74.0709 61.5,72.5C 60.689,71.7836 60.0223,70.9503 59.5,70C 60.6043,66.2955 62.1043,62.7955 64,59.5C 64.3333,60.1667 64.6667,60.8333 65,61.5C 66.0145,55.696 68.8478,51.196 73.5,48C 70.9952,45.4266 71.4952,43.2599 75,41.5C 76.0718,38.7821 77.2384,36.1155 78.5,33.5C 82.4811,32.4943 82.4811,31.4943 78.5,30.5C 82.5825,29.0617 84.9159,26.0617 85.5,21.5C 83.9928,20.2612 82.8261,20.5946 82,22.5C 81.1888,20.3299 79.8554,18.6632 78,17.5C 75.3744,19.5612 72.5411,21.2279 69.5,22.5C 79.3556,11.4918 91.6889,7.32512 106.5,10C 110.787,10.81 114.454,12.6433 117.5,15.5 Z"/></g>
<g><path style="opacity:1" fill="#4d34af" d="M 85.5,35.5 C 78.1667,48.8333 70.8333,62.1667 63.5,75.5C 62.9033,75.2648 62.5699,74.7648 62.5,74C 63.5633,70.8467 64.5633,67.68 65.5,64.5C 67.7511,62.2799 69.9178,59.9465 72,57.5C 74.8441,50.4504 78.3441,43.7838 82.5,37.5C 81.9747,36.8076 81.3081,36.3076 80.5,36C 82.1341,35.5065 83.8008,35.3398 85.5,35.5 Z"/></g>
<g><path style="opacity:1" fill="#4c2cd9" d="M 34.5,62.5 C 34.5,68.1667 34.5,73.8333 34.5,79.5C 34.0084,84.236 35.3417,88.236 38.5,91.5C 38.6203,94.4802 39.287,97.3135 40.5,100C 39.944,100.383 39.6107,100.883 39.5,101.5C 37.16,100.161 35.8267,98.4938 35.5,96.5C 34.7492,97.376 34.2492,98.376 34,99.5C 33.6258,98.5838 33.1258,97.7504 32.5,97C 34.4206,95.7592 34.754,94.2592 33.5,92.5C 32.7492,93.376 32.2492,94.376 32,95.5C 29.4575,94.1236 29.2908,92.957 31.5,92C 29.4671,88.5973 27.8004,84.9306 26.5,81C 28.1916,78.0647 28.8583,74.8981 28.5,71.5C 27.5,71.5 26.5,71.5 25.5,71.5C 25.6641,68.8127 25.4974,66.146 25,63.5C 22.7277,65.4616 20.8943,67.795 19.5,70.5C 19.83,74.4337 19.9966,78.4337 20,82.5C 20.9147,81.6721 21.5814,80.6721 22,79.5C 22.3333,82.1667 22.6667,84.8333 23,87.5C 25.3025,90.9436 25.8025,94.9436 24.5,99.5C 21.4377,97.4903 19.4377,95.1569 18.5,92.5C 11.2218,73.6699 15.2218,57.6699 30.5,44.5C 31.4959,44.4142 32.3292,44.7476 33,45.5C 33.6122,42.9683 35.1122,42.1349 37.5,43C 34.7236,44.7787 35.0569,45.7787 38.5,46C 35.7721,47.4309 35.1054,49.4309 36.5,52C 35.2741,55.4019 34.6074,58.9019 34.5,62.5 Z"/></g>
<g><path style="opacity:1" fill="#4c32be" d="M 139.5,53.5 C 142.572,53.1826 145.572,53.5159 148.5,54.5C 151.05,56.7367 154.05,58.2367 157.5,59C 158.743,60.1545 159.743,61.4878 160.5,63C 161.448,63.4828 162.448,63.6495 163.5,63.5C 163.4,66.1085 164.067,68.4418 165.5,70.5C 158.479,62.3223 149.812,56.6557 139.5,53.5 Z"/></g>
<g><path style="opacity:1" fill="#472ebf" d="M 148.5,66.5 C 141.154,64.8269 133.82,64.6603 126.5,66C 122.865,67.6794 119.865,69.1794 117.5,70.5C 117.5,71.5 117.5,72.5 117.5,73.5C 116.167,73.5 114.833,73.5 113.5,73.5C 113.5,74.8333 113.5,76.1667 113.5,77.5C 111.142,77.2525 109.142,77.9192 107.5,79.5C 117.086,62.0818 130.752,57.7485 148.5,66.5 Z"/></g>
<g><path style="opacity:1" fill="#4632a9" d="M 116.5,56.5 C 113.413,58.8121 110.579,61.4788 108,64.5C 105.64,69.2404 102.807,73.5737 99.5,77.5C 99.3184,75.4086 99.6518,73.4086 100.5,71.5C 101.325,70.6143 102.325,70.281 103.5,70.5C 103.5,68.8333 103.5,67.1667 103.5,65.5C 104.5,65.5 105.5,65.5 106.5,65.5C 106.5,64.1667 106.5,62.8333 106.5,61.5C 107.5,61.5 108.5,61.5 109.5,61.5C 109.5,60.5 109.5,59.5 109.5,58.5C 111.737,57.551 114.071,56.8844 116.5,56.5 Z"/></g>
<g><path style="opacity:1" fill="#492ae0" d="M 148.5,66.5 C 151.579,69.6505 153.913,73.3171 155.5,77.5C 156.167,80.5 156.833,83.5 157.5,86.5C 158.5,86.5 159.5,86.5 160.5,86.5C 160.491,88.3084 160.991,89.9751 162,91.5C 163.722,94.8672 165.889,97.8672 168.5,100.5C 169.679,103.371 169.679,106.204 168.5,109C 169.742,109.311 170.742,108.811 171.5,107.5C 172.893,110.196 174.56,112.529 176.5,114.5C 176.5,114.833 176.5,115.167 176.5,115.5C 177.593,123.846 177.593,132.179 176.5,140.5C 175.5,140.5 174.5,140.5 173.5,140.5C 173.599,143.237 173.265,145.904 172.5,148.5C 172.5,148.833 172.5,149.167 172.5,149.5C 171.448,149.351 170.448,149.517 169.5,150C 167.953,151.849 166.119,153.349 164,154.5C 163.3,152.968 162.134,151.968 160.5,151.5C 158.902,152.485 157.235,152.651 155.5,152C 157.502,148.887 158.502,145.387 158.5,141.5C 160.087,135.045 159.754,128.711 157.5,122.5C 156.674,117.847 155.007,113.513 152.5,109.5C 151.253,107.956 149.92,106.456 148.5,105C 149.517,103.951 149.684,102.784 149,101.5C 148.667,101.833 148.333,102.167 148,102.5C 147.292,101.619 146.458,100.953 145.5,100.5C 143.46,96.4055 141.96,92.0722 141,87.5C 139.259,86.2423 137.426,85.2423 135.5,84.5C 135.5,84.1667 135.5,83.8333 135.5,83.5C 132.696,82.3622 129.696,82.1955 126.5,83C 124.185,84.2957 123.185,86.2957 123.5,89C 124.188,94.5282 125.855,99.6949 128.5,104.5C 129.85,105.95 131.516,106.617 133.5,106.5C 135.341,108.849 136.674,111.515 137.5,114.5C 138.668,120.168 139.834,125.835 141,131.5C 141.383,132.056 141.883,132.389 142.5,132.5C 142.663,137.547 142.329,142.547 141.5,147.5C 138.81,150.547 137.476,154.213 137.5,158.5C 136.921,161.331 135.588,163.664 133.5,165.5C 132.448,165.351 131.448,165.517 130.5,166C 129.636,167.697 128.303,168.863 126.5,169.5C 125.548,171.045 125.215,172.712 125.5,174.5C 121,172.776 119,174.442 119.5,179.5C 110.885,186.07 101.218,188.404 90.5,186.5C 88.1916,185.442 85.8583,184.276 83.5,183C 83.8333,182.667 84.1667,182.333 84.5,182C 81.6537,181.121 80.987,179.454 82.5,177C 80.5,176.667 78.5,176.333 76.5,176C 81.4589,175.418 86.4589,174.585 91.5,173.5C 96.2062,171.705 100.873,169.705 105.5,167.5C 110.883,164.956 115.217,161.122 118.5,156C 119.448,155.517 120.448,155.351 121.5,155.5C 121.764,151.607 122.431,147.774 123.5,144C 123.472,142.93 123.139,142.097 122.5,141.5C 122.5,141.167 122.5,140.833 122.5,140.5C 123.765,139.486 124.431,137.986 124.5,136C 124.333,134.5 124.167,133 124,131.5C 122.456,126.439 120.956,121.439 119.5,116.5C 118.167,116.5 116.833,116.5 115.5,116.5C 115.5,116.167 115.5,115.833 115.5,115.5C 115.17,111.979 113.67,108.979 111,106.5C 106.509,97.9669 105.342,88.9669 107.5,79.5C 109.142,77.9192 111.142,77.2525 113.5,77.5C 113.5,76.1667 113.5,74.8333 113.5,73.5C 114.833,73.5 116.167,73.5 117.5,73.5C 117.5,72.5 117.5,71.5 117.5,70.5C 119.865,69.1794 122.865,67.6794 126.5,66C 133.82,64.6603 141.154,64.8269 148.5,66.5 Z"/></g>
<g><path style="opacity:1" fill="#4828e3" d="M 89.5,92.5 C 87.3337,92.5789 85.3337,93.2455 83.5,94.5C 82.5581,94.3918 81.7247,94.0585 81,93.5C 78.6236,95.7441 75.9569,96.0774 73,94.5C 70.881,96.7422 68.381,97.0755 65.5,95.5C 60.835,92.0185 56.1684,89.3518 51.5,87.5C 51.5408,91.2434 50.8741,91.4101 49.5,88C 49.8333,87.6667 50.1667,87.3333 50.5,87C 48.2616,84.8957 47.2616,82.5624 47.5,80C 44.713,77.4116 44.3796,74.7449 46.5,72C 44.8934,70.951 44.2267,69.451 44.5,67.5C 47.4701,67.2542 48.8034,65.5876 48.5,62.5C 49.8221,62.33 50.9887,62.6634 52,63.5C 53.5106,60.4803 54.0106,57.4803 53.5,54.5C 56.1993,52.1019 57.5326,49.1019 57.5,45.5C 58.9778,45.762 60.3112,45.4287 61.5,44.5C 60.7871,41.9037 60.7871,39.2371 61.5,36.5C 63.649,31.5351 66.3157,26.8684 69.5,22.5C 72.5411,21.2279 75.3744,19.5612 78,17.5C 79.8554,18.6632 81.1888,20.3299 82,22.5C 82.8261,20.5946 83.9928,20.2612 85.5,21.5C 84.9159,26.0617 82.5825,29.0617 78.5,30.5C 82.4811,31.4943 82.4811,32.4943 78.5,33.5C 77.2384,36.1155 76.0718,38.7821 75,41.5C 71.4952,43.2599 70.9952,45.4266 73.5,48C 68.8478,51.196 66.0145,55.696 65,61.5C 64.6667,60.8333 64.3333,60.1667 64,59.5C 62.1043,62.7955 60.6043,66.2955 59.5,70C 60.0223,70.9503 60.689,71.7836 61.5,72.5C 60.6906,74.0709 60.3573,75.7376 60.5,77.5C 61.8333,77.5 63.1667,77.5 64.5,77.5C 63.7207,80.0747 63.8873,82.408 65,84.5C 67.3333,83.8333 69.6667,83.1667 72,82.5C 72.3333,82.8333 72.6667,83.1667 73,83.5C 77.2528,81.291 81.4194,78.9577 85.5,76.5C 85.0233,75.5224 84.3567,74.6891 83.5,74C 87.7189,70.6942 89.8856,65.8609 90,59.5C 90.2492,60.624 90.7492,61.624 91.5,62.5C 95.1906,56.7458 99.6906,51.7458 105,47.5C 105.333,46.5 105.667,45.5 106,44.5C 107.153,46.497 108.653,46.8304 110.5,45.5C 109.54,44.1877 109.706,42.8544 111,41.5C 120.607,41.5219 130.274,41.5219 140,41.5C 142.768,44.0881 144.768,43.7548 146,40.5C 149.016,43.9507 152.683,44.9507 157,43.5C 158.728,45.1944 158.228,46.3611 155.5,47C 156.833,48.6667 158.167,50.3333 159.5,52C 158.833,52.6667 158.167,53.3333 157.5,54C 158.711,54.8928 158.711,55.7261 157.5,56.5C 155.516,53.4684 153.182,51.4684 150.5,50.5C 149.5,51.1667 148.5,51.8333 147.5,52.5C 146.289,51.7261 146.289,50.8928 147.5,50C 143.736,49.1341 140.069,47.9674 136.5,46.5C 135.5,47.1667 134.5,47.8333 133.5,48.5C 129.032,46.5494 124.365,45.5494 119.5,45.5C 119.5,46.8333 119.5,48.1667 119.5,49.5C 114.608,50.0894 110.441,52.0894 107,55.5C 106.667,55.1667 106.333,54.8333 106,54.5C 104.167,57 102.333,59.5 100.5,62C 100.833,62.3333 101.167,62.6667 101.5,63C 100.439,64.8491 99.7725,66.8491 99.5,69C 99.0314,70.8869 98.0314,72.3869 96.5,73.5C 96.7093,74.086 97.0426,74.586 97.5,75C 95.8333,75.3333 94.1667,75.6667 92.5,76C 93.8146,77.3946 93.4812,78.3946 91.5,79C 93.6621,81.5219 93.9955,84.3553 92.5,87.5C 91.5745,86.3595 90.7412,86.3595 90,87.5C 89.5065,89.1341 89.3398,90.8008 89.5,92.5 Z"/></g>
<g><path style="opacity:1" fill="#362489" d="M 139.5,53.5 C 133.773,53.2598 128.106,53.5931 122.5,54.5C 124.915,53.1858 127.748,52.5191 131,52.5C 134.021,52.5022 136.854,52.8356 139.5,53.5 Z"/></g>
<g><path style="opacity:1" fill="#4c34b8" d="M 168.5,50.5 C 177.051,60.6011 179.885,72.2678 177,85.5C 175,88.1667 173,88.1667 171,85.5C 170.105,81.2369 168.605,77.2369 166.5,73.5C 170.337,74.7523 173.004,76.7523 174.5,79.5C 175.792,76.998 176.459,74.3314 176.5,71.5C 175.574,68.5304 174.908,65.5304 174.5,62.5C 172.891,62.9059 171.557,62.9059 170.5,62.5C 170.931,61.7065 171.265,60.8732 171.5,60C 170.932,56.6237 169.932,53.457 168.5,50.5 Z"/></g>
<g><path style="opacity:1" fill="#472ccc" d="M 61.5,36.5 C 60.7871,39.2371 60.7871,41.9037 61.5,44.5C 60.3112,45.4287 58.9778,45.762 57.5,45.5C 57.5326,49.1019 56.1993,52.1019 53.5,54.5C 54.0106,57.4803 53.5106,60.4803 52,63.5C 50.9887,62.6634 49.8221,62.33 48.5,62.5C 48.8034,65.5876 47.4701,67.2542 44.5,67.5C 44.2267,69.451 44.8934,70.951 46.5,72C 44.3796,74.7449 44.713,77.4116 47.5,80C 47.2616,82.5624 48.2616,84.8957 50.5,87C 50.1667,87.3333 49.8333,87.6667 49.5,88C 50.8741,91.4101 51.5408,91.2434 51.5,87.5C 56.1684,89.3518 60.835,92.0185 65.5,95.5C 68.381,97.0755 70.881,96.7422 73,94.5C 75.9569,96.0774 78.6236,95.7441 81,93.5C 81.7247,94.0585 82.5581,94.3918 83.5,94.5C 85.3337,93.2455 87.3337,92.5789 89.5,92.5C 84.4374,97.8636 78.104,100.53 70.5,100.5C 62.139,100.389 55.139,97.3889 49.5,91.5C 46.2276,85.6344 43.5609,79.6344 41.5,73.5C 42.1361,69.2186 43.6361,65.2186 46,61.5C 51.1918,53.1026 56.3584,44.7693 61.5,36.5 Z"/></g>
<g><path style="opacity:1" fill="#5535cb" d="M 135.5,83.5 C 128.402,84.4577 125.902,88.4577 128,95.5C 129.86,99.2198 131.693,102.886 133.5,106.5C 131.516,106.617 129.85,105.95 128.5,104.5C 125.855,99.6949 124.188,94.5282 123.5,89C 123.185,86.2957 124.185,84.2957 126.5,83C 129.696,82.1955 132.696,82.3622 135.5,83.5 Z"/></g>
<g><path style="opacity:1" fill="#4231a1" d="M 41.5,73.5 C 43.5609,79.6344 46.2276,85.6344 49.5,91.5C 44.1476,86.7875 41.4809,80.7875 41.5,73.5 Z"/></g>
<g><path style="opacity:1" fill="#432da2" d="M 107.5,79.5 C 105.342,88.9669 106.509,97.9669 111,106.5C 113.67,108.979 115.17,111.979 115.5,115.5C 109.42,108.33 105.753,99.9968 104.5,90.5C 104.883,86.5411 105.883,82.8744 107.5,79.5 Z"/></g>
<g><path style="opacity:1" fill="#5c4bad" d="M 34.5,79.5 C 36.0026,83.3411 37.3359,87.3411 38.5,91.5C 35.3417,88.236 34.0084,84.236 34.5,79.5 Z"/></g>
<g><path style="opacity:1" fill="#553daf" d="M 155.5,77.5 C 160.589,84.6722 164.923,92.3388 168.5,100.5C 165.889,97.8672 163.722,94.8672 162,91.5C 160.991,89.9751 160.491,88.3084 160.5,86.5C 159.5,86.5 158.5,86.5 157.5,86.5C 156.833,83.5 156.167,80.5 155.5,77.5 Z"/></g>
<g><path style="opacity:1" fill="#422fac" d="M 135.5,84.5 C 137.426,85.2423 139.259,86.2423 141,87.5C 141.96,92.0722 143.46,96.4055 145.5,100.5C 141.68,95.5393 138.347,90.2059 135.5,84.5 Z"/></g>
<g><path style="opacity:1" fill="#5136c7" d="M 38.5,91.5 C 42.1667,97.1667 46.8333,101.833 52.5,105.5C 50.1229,105.216 47.9562,105.216 46,105.5C 44.1469,103.709 41.9802,102.376 39.5,101.5C 39.6107,100.883 39.944,100.383 40.5,100C 39.287,97.3135 38.6203,94.4802 38.5,91.5 Z"/></g>
<g><path style="opacity:1" fill="#4835af" d="M 145.5,100.5 C 146.458,100.953 147.292,101.619 148,102.5C 148.333,102.167 148.667,101.833 149,101.5C 149.684,102.784 149.517,103.951 148.5,105C 149.92,106.456 151.253,107.956 152.5,109.5C 155.007,113.513 156.674,117.847 157.5,122.5C 152.995,115.495 148.995,108.161 145.5,100.5 Z"/></g>
<g><path style="opacity:1" fill="#4f35b3" d="M 168.5,100.5 C 172.174,104.507 174.841,109.173 176.5,114.5C 174.56,112.529 172.893,110.196 171.5,107.5C 170.742,108.811 169.742,109.311 168.5,109C 169.679,106.204 169.679,103.371 168.5,100.5 Z"/></g>
<g><path style="opacity:1" fill="#432cb7" d="M 18.5,92.5 C 19.4377,95.1569 21.4377,97.4903 24.5,99.5C 24.3433,100.873 24.51,102.207 25,103.5C 26.84,105.338 28.5067,107.338 30,109.5C 30.6667,108.833 31.3333,108.167 32,107.5C 33.0084,107.982 34.175,108.148 35.5,108C 34.9491,109.398 34.6158,110.732 34.5,112C 35.448,112.483 36.448,112.649 37.5,112.5C 37.281,113.675 37.6143,114.675 38.5,115.5C 42.0506,118.225 45.7173,120.725 49.5,123C 60.6651,125.638 71.9984,126.971 83.5,127C 85.6526,127.099 87.3192,127.933 88.5,129.5C 82.7793,127.39 76.9459,127.056 71,128.5C 49.9425,127.81 33.6092,118.81 22,101.5C 20.2589,98.6907 19.0922,95.6907 18.5,92.5 Z"/></g>
<g><path style="opacity:1" fill="#4d35b7" d="M 89.5,108.5 C 94.7734,108.031 99.1068,109.697 102.5,113.5C 100.801,113.66 99.1341,113.494 97.5,113C 94.6105,111.572 91.9438,110.072 89.5,108.5 Z"/></g>
<g><path style="opacity:1" fill="#4930be" d="M 26.5,127.5 C 22.6309,124.547 20.4642,120.88 20,116.5C 17.6892,118.541 15.8559,120.875 14.5,123.5C 14.5,121.5 14.5,119.5 14.5,117.5C 14.8257,114.689 15.6591,112.022 17,109.5C 19.112,107.078 21.112,107.078 23,109.5C 23.2191,115.705 24.3857,121.705 26.5,127.5 Z"/></g>
<g><path style="opacity:1" fill="#4e37a0" d="M 137.5,114.5 C 140.646,119.979 142.313,125.979 142.5,132.5C 141.883,132.389 141.383,132.056 141,131.5C 139.834,125.835 138.668,120.168 137.5,114.5 Z"/></g>
<g><path style="opacity:1" fill="#47349f" d="M 115.5,116.5 C 116.833,116.5 118.167,116.5 119.5,116.5C 120.956,121.439 122.456,126.439 124,131.5C 124.167,133 124.333,134.5 124.5,136C 124.431,137.986 123.765,139.486 122.5,140.5C 123.442,131.648 121.109,123.648 115.5,116.5 Z"/></g>
<g><path style="opacity:1" fill="#4a37a7" d="M 14.5,117.5 C 14.5,119.5 14.5,121.5 14.5,123.5C 14.3345,127.514 14.5012,131.514 15,135.5C 16.4618,137.437 17.6285,139.437 18.5,141.5C 19.3124,143.945 20.3124,146.278 21.5,148.5C 13.0002,139.505 10.6668,129.172 14.5,117.5 Z"/></g>
<g><path style="opacity:1" fill="#45268d" d="M 176.5,115.5 C 180.5,123.833 180.5,132.167 176.5,140.5C 177.593,132.179 177.593,123.846 176.5,115.5 Z"/></g>
<g><path style="opacity:1" fill="#492bde" d="M 39.5,101.5 C 41.9802,102.376 44.1469,103.709 46,105.5C 47.9562,105.216 50.1229,105.216 52.5,105.5C 54.5643,105.687 56.5643,106.187 58.5,107C 69.0081,107.17 79.3415,107.67 89.5,108.5C 91.9438,110.072 94.6105,111.572 97.5,113C 99.1341,113.494 100.801,113.66 102.5,113.5C 102.833,113.5 103.167,113.5 103.5,113.5C 106.199,119.203 108.866,124.87 111.5,130.5C 112.699,136.508 112.699,142.508 111.5,148.5C 109.167,154.167 105.167,158.167 99.5,160.5C 81.8302,160.667 64.1635,160.5 46.5,160C 42.8284,157.87 38.8284,157.037 34.5,157.5C 34.5,156.5 34.5,155.5 34.5,154.5C 31.8431,154.838 29.5098,154.171 27.5,152.5C 25.8244,149.827 24.1577,147.161 22.5,144.5C 21.3578,143.174 20.0245,142.174 18.5,141.5C 17.6285,139.437 16.4618,137.437 15,135.5C 14.5012,131.514 14.3345,127.514 14.5,123.5C 15.8559,120.875 17.6892,118.541 20,116.5C 20.4642,120.88 22.6309,124.547 26.5,127.5C 27.3382,127.842 27.6716,128.508 27.5,129.5C 28.4132,134.479 31.4132,137.479 36.5,138.5C 38.3356,140.588 40.6689,141.921 43.5,142.5C 44.0768,145.55 42.9101,147.55 40,148.5C 36.7018,144.947 33.2018,144.78 29.5,148C 30.5794,150.043 32.246,151.376 34.5,152C 34.1667,152.333 33.8333,152.667 33.5,153C 36.4081,153.689 39.0748,154.855 41.5,156.5C 46.5929,155.729 51.5929,155.396 56.5,155.5C 57.5,155.833 58.5,156.167 59.5,156.5C 58.2713,157.281 56.938,157.781 55.5,158C 57.8907,158.287 60.2241,158.787 62.5,159.5C 70.778,158.53 79.1114,158.197 87.5,158.5C 87.5,157.5 87.5,156.5 87.5,155.5C 89.5273,155.662 91.5273,155.495 93.5,155C 96.658,153.446 99.3246,151.279 101.5,148.5C 102.72,147.289 103.887,147.289 105,148.5C 106.581,142.277 106.915,135.944 106,129.5C 105.626,128.584 105.126,127.75 104.5,127C 106.421,125.759 106.754,124.259 105.5,122.5C 104.514,126.375 103.347,126.375 102,122.5C 99.8707,123.863 99.3707,123.529 100.5,121.5C 99.5,120.667 98.5,119.833 97.5,119C 99.3008,118.683 99.6341,118.016 98.5,117C 95.0258,116.699 91.6925,115.866 88.5,114.5C 87.0506,115.617 85.3839,116.284 83.5,116.5C 75.5,115.5 67.5,114.5 59.5,113.5C 56.2013,116.558 53.5347,116.058 51.5,112C 50.552,111.517 49.552,111.351 48.5,111.5C 48.6495,110.448 48.4828,109.448 48,108.5C 47.6667,108.833 47.3333,109.167 47,109.5C 47.4229,111.387 47.2563,113.387 46.5,115.5C 44.8967,115.312 43.5634,115.812 42.5,117C 44.9203,117.687 47.087,117.187 49,115.5C 51.6747,120.364 55.3414,121.698 60,119.5C 64.7696,120.121 69.7696,120.787 75,121.5C 78.2072,121.259 81.3738,120.759 84.5,120C 82.8333,119.667 81.1667,119.333 79.5,119C 82.146,118.503 84.8127,118.336 87.5,118.5C 87.5,119.5 87.5,120.5 87.5,121.5C 84.9267,122.493 82.26,123.326 79.5,124C 83.5,124 87.5,124 91.5,124C 91.1667,124.333 90.8333,124.667 90.5,125C 91.1905,126.067 91.6905,127.234 92,128.5C 92.414,128.043 92.914,127.709 93.5,127.5C 95.1852,129.669 96.8518,131.836 98.5,134C 97.4366,135.188 96.1033,135.688 94.5,135.5C 94.7845,137.415 94.4511,139.081 93.5,140.5C 93.577,136.785 93.2436,133.119 92.5,129.5C 91.1667,129.5 89.8333,129.5 88.5,129.5C 87.3192,127.933 85.6526,127.099 83.5,127C 71.9984,126.971 60.6651,125.638 49.5,123C 45.7173,120.725 42.0506,118.225 38.5,115.5C 37.6143,114.675 37.281,113.675 37.5,112.5C 36.448,112.649 35.448,112.483 34.5,112C 34.6158,110.732 34.9491,109.398 35.5,108C 34.175,108.148 33.0084,107.982 32,107.5C 31.3333,108.167 30.6667,108.833 30,109.5C 28.5067,107.338 26.84,105.338 25,103.5C 24.51,102.207 24.3433,100.873 24.5,99.5C 25.8025,94.9436 25.3025,90.9436 23,87.5C 22.6667,84.8333 22.3333,82.1667 22,79.5C 21.5814,80.6721 20.9147,81.6721 20,82.5C 19.9966,78.4337 19.83,74.4337 19.5,70.5C 20.8943,67.795 22.7277,65.4616 25,63.5C 25.4974,66.146 25.6641,68.8127 25.5,71.5C 26.5,71.5 27.5,71.5 28.5,71.5C 28.8583,74.8981 28.1916,78.0647 26.5,81C 27.8004,84.9306 29.4671,88.5973 31.5,92C 29.2908,92.957 29.4575,94.1236 32,95.5C 32.2492,94.376 32.7492,93.376 33.5,92.5C 34.754,94.2592 34.4206,95.7592 32.5,97C 33.1258,97.7504 33.6258,98.5838 34,99.5C 34.2492,98.376 34.7492,97.376 35.5,96.5C 35.8267,98.4938 37.16,100.161 39.5,101.5 Z"/></g>
<g><path style="opacity:1" fill="#5e46b1" d="M 27.5,129.5 C 30.1667,132.833 33.1667,135.833 36.5,138.5C 31.4132,137.479 28.4132,134.479 27.5,129.5 Z"/></g>
<g><path style="opacity:1" fill="#4a29e6" d="M 43.5,142.5 C 44.7421,143.043 46.0755,143.377 47.5,143.5C 62.1483,142.716 76.815,142.216 91.5,142C 92.0442,141.283 92.7109,140.783 93.5,140.5C 94.4511,139.081 94.7845,137.415 94.5,135.5C 96.1033,135.688 97.4366,135.188 98.5,134C 96.8518,131.836 95.1852,129.669 93.5,127.5C 92.914,127.709 92.414,128.043 92,128.5C 91.6905,127.234 91.1905,126.067 90.5,125C 90.8333,124.667 91.1667,124.333 91.5,124C 87.5,124 83.5,124 79.5,124C 82.26,123.326 84.9267,122.493 87.5,121.5C 87.5,120.5 87.5,119.5 87.5,118.5C 84.8127,118.336 82.146,118.503 79.5,119C 81.1667,119.333 82.8333,119.667 84.5,120C 81.3738,120.759 78.2072,121.259 75,121.5C 69.7696,120.787 64.7696,120.121 60,119.5C 55.3414,121.698 51.6747,120.364 49,115.5C 47.087,117.187 44.9203,117.687 42.5,117C 43.5634,115.812 44.8967,115.312 46.5,115.5C 47.2563,113.387 47.4229,111.387 47,109.5C 47.3333,109.167 47.6667,108.833 48,108.5C 48.4828,109.448 48.6495,110.448 48.5,111.5C 49.552,111.351 50.552,111.517 51.5,112C 53.5347,116.058 56.2013,116.558 59.5,113.5C 67.5,114.5 75.5,115.5 83.5,116.5C 85.3839,116.284 87.0506,115.617 88.5,114.5C 91.6925,115.866 95.0258,116.699 98.5,117C 99.6341,118.016 99.3008,118.683 97.5,119C 98.5,119.833 99.5,120.667 100.5,121.5C 99.3707,123.529 99.8707,123.863 102,122.5C 103.347,126.375 104.514,126.375 105.5,122.5C 106.754,124.259 106.421,125.759 104.5,127C 105.126,127.75 105.626,128.584 106,129.5C 106.915,135.944 106.581,142.277 105,148.5C 103.887,147.289 102.72,147.289 101.5,148.5C 99.3246,151.279 96.658,153.446 93.5,155C 91.5273,155.495 89.5273,155.662 87.5,155.5C 87.5,156.5 87.5,157.5 87.5,158.5C 79.1114,158.197 70.778,158.53 62.5,159.5C 60.2241,158.787 57.8907,158.287 55.5,158C 56.938,157.781 58.2713,157.281 59.5,156.5C 58.5,156.167 57.5,155.833 56.5,155.5C 51.5929,155.396 46.5929,155.729 41.5,156.5C 39.0748,154.855 36.4081,153.689 33.5,153C 33.8333,152.667 34.1667,152.333 34.5,152C 32.246,151.376 30.5794,150.043 29.5,148C 33.2018,144.78 36.7018,144.947 40,148.5C 42.9101,147.55 44.0768,145.55 43.5,142.5 Z"/></g>
<g><path style="opacity:1" fill="#4f39b6" d="M 103.5,113.5 C 110.775,119.553 114.441,127.387 114.5,137C 114.646,141.255 113.646,145.088 111.5,148.5C 112.699,142.508 112.699,136.508 111.5,130.5C 108.866,124.87 106.199,119.203 103.5,113.5 Z"/></g>
<g><path style="opacity:1" fill="#442ea4" d="M 176.5,140.5 C 176.206,143.754 174.873,146.421 172.5,148.5C 173.265,145.904 173.599,143.237 173.5,140.5C 174.5,140.5 175.5,140.5 176.5,140.5 Z"/></g>
<g><path style="opacity:1" fill="#4c31bd" d="M 88.5,129.5 C 89.8333,129.5 91.1667,129.5 92.5,129.5C 93.2436,133.119 93.577,136.785 93.5,140.5C 92.7109,140.783 92.0442,141.283 91.5,142C 76.815,142.216 62.1483,142.716 47.5,143.5C 46.0755,143.377 44.7421,143.043 43.5,142.5C 40.6689,141.921 38.3356,140.588 36.5,138.5C 39.4786,139.317 42.4786,140.151 45.5,141C 60.5,141.667 75.5,141.667 90.5,141C 93.2474,136.57 92.5807,132.737 88.5,129.5 Z"/></g>
<g><path style="opacity:1" fill="#44328e" d="M 141.5,147.5 C 140.935,151.537 139.601,155.203 137.5,158.5C 137.476,154.213 138.81,150.547 141.5,147.5 Z"/></g>
<g><path style="opacity:1" fill="#4e37b9" d="M 122.5,141.5 C 123.139,142.097 123.472,142.93 123.5,144C 122.431,147.774 121.764,151.607 121.5,155.5C 120.448,155.351 119.448,155.517 118.5,156C 115.217,161.122 110.883,164.956 105.5,167.5C 114.391,160.942 120.057,152.276 122.5,141.5 Z"/></g>
<g><path style="opacity:1" fill="#452ec6" d="M 158.5,141.5 C 158.502,145.387 157.502,148.887 155.5,152C 157.235,152.651 158.902,152.485 160.5,151.5C 162.134,151.968 163.3,152.968 164,154.5C 166.119,153.349 167.953,151.849 169.5,150C 170.448,149.517 171.448,149.351 172.5,149.5C 167.725,155.937 161.392,159.937 153.5,161.5C 149.833,161.5 146.167,161.5 142.5,161.5C 142.5,160.5 142.5,159.5 142.5,158.5C 149.214,154.12 154.548,148.453 158.5,141.5 Z"/></g>
<g><path style="opacity:1" fill="#412cb9" d="M 18.5,141.5 C 20.0245,142.174 21.3578,143.174 22.5,144.5C 24.1577,147.161 25.8244,149.827 27.5,152.5C 29.5098,154.171 31.8431,154.838 34.5,154.5C 34.5,155.5 34.5,156.5 34.5,157.5C 38.8284,157.037 42.8284,157.87 46.5,160C 64.1635,160.5 81.8302,160.667 99.5,160.5C 80.6711,161.662 61.6711,161.829 42.5,161C 34.0893,159.066 27.0893,154.899 21.5,148.5C 20.3124,146.278 19.3124,143.945 18.5,141.5 Z"/></g>
<g><path style="opacity:1" fill="#423181" d="M 142.5,158.5 C 142.5,159.5 142.5,160.5 142.5,161.5C 146.167,161.5 149.833,161.5 153.5,161.5C 150.446,163.174 147.112,163.674 143.5,163C 141.422,161.73 141.088,160.23 142.5,158.5 Z"/></g>
<g><path style="opacity:1" fill="#402dad" d="M 133.5,165.5 C 130.5,171.833 125.833,176.5 119.5,179.5C 119,174.442 121,172.776 125.5,174.5C 125.215,172.712 125.548,171.045 126.5,169.5C 128.303,168.863 129.636,167.697 130.5,166C 131.448,165.517 132.448,165.351 133.5,165.5 Z"/></g>
<g><path style="opacity:1" fill="#432cbd" d="M 91.5,173.5 C 86.4589,174.585 81.4589,175.418 76.5,176C 78.5,176.333 80.5,176.667 82.5,177C 80.987,179.454 81.6537,181.121 84.5,182C 84.1667,182.333 83.8333,182.667 83.5,183C 85.8583,184.276 88.1916,185.442 90.5,186.5C 81.0348,185.438 73.3681,181.271 67.5,174C 67.8621,172.115 69.0287,171.281 71,171.5C 77.7085,173.248 84.5418,173.914 91.5,173.5 Z"/></g>
</svg>
